
<svg width="218px" height="153px" viewBox="0 0 218 153" version="1.1" xmlns="http://www.w3.org/2000/svg" xmlns:xlink="http://www.w3.org/1999/xlink">
    <!-- Generator: Sketch 46.2 (44496) - http://www.bohemiancoding.com/sketch -->
    <desc>Created with Sketch.</desc>
    <defs></defs>
    <g id="Page-1" stroke="none" stroke-width="1" fill="none" fill-rule="evenodd">
        <g id="3" transform="translate(-241.000000, -290.000000)">
            <g id="Toolbox" transform="translate(200.000000, 181.000000)">
                <g id="illustretion" transform="translate(42.000000, 109.000000)">
                    <path d="M192.9995,149.0005 L22.9995,149.0005 C11.9545,149.0005 2.9995,140.0465 2.9995,129.0005 L2.9995,29.0015 C2.9995,17.9555 11.9545,9.0015 22.9995,9.0015 L192.9995,9.0015 C204.0455,9.0015 212.9995,17.9555 212.9995,29.0015 L212.9995,129.0005 C212.9995,140.0465 204.0455,149.0005 192.9995,149.0005" id="Fill-1" fill="#F6F6F6"></path>
                    <path d="M24,12.0015 C14.075,12.0015 6,20.0765 6,30.0015 L6,130.0005 C6,139.9245 14.075,148.0005 24,148.0005 L193.999,148.0005 C203.924,148.0005 211.999,139.9245 211.999,130.0005 L211.999,30.0015 C211.999,20.0765 203.924,12.0015 193.999,12.0015 L24,12.0015 Z M24,152.0005 C11.869,152.0005 2,142.1305 2,130.0005 L2,30.0015 C2,17.8715 11.869,8.0015 24,8.0015 L193.999,8.0015 C206.13,8.0015 215.999,17.8715 215.999,30.0015 L215.999,130.0005 C215.999,142.1305 206.13,152.0005 193.999,152.0005 L24,152.0005 Z" id="Fill-3" fill="#C2E9F9"></path>
                    <path d="M23,12.0015 C13.626,12.0015 6,19.6275 6,29.0015 L6,129.0005 C6,138.3745 13.626,146.0005 23,146.0005 L192.999,146.0005 C202.373,146.0005 209.999,138.3745 209.999,129.0005 L209.999,29.0015 C209.999,19.6275 202.373,12.0015 192.999,12.0015 L23,12.0015 L23,12.0015 Z M192.999,152.0005 L23,152.0005 C10.317,152.0005 0,141.6825 0,129.0005 L0,29.0015 C0,16.3195 10.317,6.0015 23,6.0015 L192.999,6.0015 C205.682,6.0015 215.999,16.3195 215.999,29.0015 L215.999,129.0005 C215.999,141.6825 205.682,152.0005 192.999,152.0005 L192.999,152.0005 Z" id="Stroke-5" stroke="#545E65" stroke-width="2"></path>
                    <path d="M191.0009,72.5752 L191.0009,56.4672 C191.0009,45.6342 187.8649,36.0242 182.6139,30.7622 C181.4729,29.6192 179.9379,29.0012 178.3669,29.0012 L167.6349,29.0012 C166.0639,29.0012 164.5279,29.6192 163.3879,30.7622 C158.1369,36.0242 155.0009,45.6342 155.0009,56.4682 L155.0009,72.5752 C150.5399,81.4492 148.0009,93.3262 148.0009,105.4662 C148.0009,111.7262 148.6399,117.8272 149.8999,123.6012 C150.8969,128.1592 155.0039,131.4672 159.6659,131.4672 C160.3809,131.4672 161.0989,131.3892 161.8049,131.2352 C167.1889,130.0582 170.6149,124.7202 169.4389,119.3312 C168.4849,114.9632 168.0009,110.2982 168.0009,105.4662 C168.0009,96.1352 169.8149,87.3952 173.0009,81.2762 C176.1869,87.3952 178.0009,96.1352 178.0009,105.4662 C178.0009,110.2982 177.5169,114.9632 176.5619,119.3342 C175.3869,124.7202 178.8129,130.0582 184.2019,131.2362 C184.9029,131.3892 185.6209,131.4672 186.3359,131.4672 C190.9979,131.4672 195.1049,128.1592 196.1029,123.5982 C197.3619,117.8272 198.0009,111.7262 198.0009,105.4662 C198.0009,93.3272 195.4619,81.4502 191.0009,72.5752" id="Fill-7" fill="#DDE0E2"></path>
                    <path d="M86.9971,114.998 C77.3061,114.998 69.9971,109.839 69.9971,102.998 L69.9971,80.099 L75.5661,61.999 L77.9971,61.999 L77.9971,45.974 L75.6721,39.003 L79.6731,27.005 L94.3211,27.005 L98.3221,39.003 L95.9971,45.974 L95.9971,61.999 L98.4291,61.999 L103.9971,80.099 L103.9971,102.998 C103.9971,109.839 96.6881,114.998 86.9971,114.998" id="Fill-9" fill="#DDE0E2"></path>
                    <path d="M121.6768,115.0039 L118.0018,103.9769 L118.0018,80.0039 L115.5708,80.0039 L110.0018,61.9039 L110.0018,39.0049 C110.0018,32.1639 117.3108,27.0049 127.0018,27.0049 C136.6938,27.0049 144.0018,32.1639 144.0018,39.0049 L144.0008,61.9039 L138.4328,80.0039 L136.0018,80.0039 L136.0018,103.9769 L132.3248,115.0039 L121.6768,115.0039 Z" id="Fill-11" fill="#DDE0E2"></path>
                    <path d="M42.9936,115.0059 C35.2736,115.0059 28.9936,108.7259 28.9936,101.0059 L28.9936,66.6109 C22.6496,64.1439 18.9936,59.9859 18.9936,54.9999 L18.9936,46.3659 L21.7886,33.3229 C22.5726,29.6599 25.8626,26.9999 29.6106,26.9999 L56.3766,26.9999 C60.1246,26.9999 63.4146,29.6599 64.1986,33.3249 L66.9936,46.3659 L66.9936,54.9999 C66.9936,59.9859 63.3376,64.1439 56.9936,66.6109 L56.9936,101.0059 C56.9936,108.7259 50.7136,115.0059 42.9936,115.0059" id="Fill-13" fill="#DDE0E2"></path>
                    <g id="tool" transform="translate(24.000000, 33.000000)">
                        <path d="M34.3319,1.5811 C34.1339,0.6591 33.3199,0.0001 32.3759,0.0001 L25.9939,0.0001 L25.9939,12.0001 C25.9939,13.1041 25.0979,14.0001 23.9939,14.0001 L13.9939,14.0001 C12.8889,14.0001 11.9939,13.1041 11.9939,12.0001 L11.9939,0.0001 L5.6109,0.0001 C4.6679,0.0001 3.8529,0.6591 3.6549,1.5811 L0.9939,14.0011 L0.9939,22.0001 C0.9939,25.1391 5.0719,27.8491 10.9939,29.1581 L10.9939,68.0061 C10.9939,72.4241 14.5749,76.0061 18.9939,76.0061 C23.4119,76.0061 26.9939,72.4241 26.9939,68.0061 L26.9939,29.1581 C32.9149,27.8491 36.9939,25.1391 36.9939,22.0001 L36.9939,14.0011 L34.3319,1.5811 Z" id="Fill-15" fill="#F6F6F6"></path>
                        <path d="M34.3319,1.5811 C34.1339,0.6591 33.3199,0.0001 32.3759,0.0001 L25.9939,0.0001 L25.9939,12.0001 C25.9939,13.1041 25.0979,14.0001 23.9939,14.0001 L13.9939,14.0001 C12.8889,14.0001 11.9939,13.1041 11.9939,12.0001 L11.9939,0.0001 L5.6109,0.0001 C4.6679,0.0001 3.8529,0.6591 3.6549,1.5811 L0.9939,14.0011 L0.9939,22.0001 C0.9939,25.1391 5.0719,27.8491 10.9939,29.1581 L10.9939,68.0061 C10.9939,72.4241 14.5749,76.0061 18.9939,76.0061 C23.4119,76.0061 26.9939,72.4241 26.9939,68.0061 L26.9939,29.1581 C32.9149,27.8491 36.9939,25.1391 36.9939,22.0001 L36.9939,14.0011 L34.3319,1.5811 L34.3319,1.5811 Z" id="Stroke-17" stroke="#545E65" stroke-width="2"></path>
                        <path d="M21.9936,68.0058 C21.9936,69.6628 20.6506,71.0058 18.9936,71.0058 C17.3366,71.0058 15.9936,69.6628 15.9936,68.0058 C15.9936,66.3488 17.3366,65.0058 18.9936,65.0058 C20.6506,65.0058 21.9936,66.3488 21.9936,68.0058" id="Fill-19" fill="#545E65"></path>
                    </g>
                    <g id="tool" transform="translate(154.000000, 35.000000)">
                        <path d="M7.0009,42.4673 L13.0009,42.4673 C14.1059,42.4673 15.0009,41.5723 15.0009,40.4673 L15.0009,21.4663 L7.0009,21.4663 L7.0009,42.4673 Z" id="Fill-25" fill="#F6F6F6"></path>
                        <path d="M7.0009,42.4673 L13.0009,42.4673 C14.1059,42.4673 15.0009,41.5723 15.0009,40.4673 L15.0009,21.4663 L7.0009,21.4663 L7.0009,42.4673 L7.0009,42.4673 Z" id="Stroke-27" stroke="#545E65" stroke-width="2"></path>
                        <path d="M25.0009,42.4673 L31.0009,42.4673 L31.0009,21.4663 L23.0009,21.4663 L23.0009,40.4673 C23.0009,41.5723 23.8959,42.4673 25.0009,42.4673" id="Fill-29" fill="#F6F6F6"></path>
                        <path d="M25.0009,42.4673 L31.0009,42.4673 L31.0009,21.4663 L23.0009,21.4663 L23.0009,40.4673 C23.0009,41.5723 23.8959,42.4673 25.0009,42.4673 L25.0009,42.4673 Z" id="Stroke-31" stroke="#545E65" stroke-width="2"></path>
                        <path d="M19.0009,9.4665 C17.9959,9.4665 17.0259,9.6035 16.0939,9.8365 L13.6349,0.0005 C9.7019,3.9415 7.0009,12.0705 7.0009,21.4665 C7.0009,28.0935 12.3739,33.4665 19.0009,33.4665 C25.6279,33.4665 31.0009,28.0935 31.0009,21.4665 C31.0009,14.8395 25.6279,9.4665 19.0009,9.4665" id="Fill-33" fill="#F6F6F6"></path>
                        <path d="M19.0009,9.4665 C17.9959,9.4665 17.0259,9.6035 16.0939,9.8365 L13.6349,0.0005 C9.7019,3.9415 7.0009,12.0705 7.0009,21.4665 C7.0009,28.0935 12.3739,33.4665 19.0009,33.4665 C25.6279,33.4665 31.0009,28.0935 31.0009,21.4665 C31.0009,14.8395 25.6279,9.4665 19.0009,9.4665 L19.0009,9.4665 Z" id="Stroke-35" stroke="#545E65" stroke-width="2"></path>
                        <path d="M19.0009,9.4665 C20.0059,9.4665 20.9759,9.6035 21.9079,9.8365 L24.3669,0.0005 C28.2999,3.9415 31.0009,12.0705 31.0009,21.4665 C31.0009,28.0935 25.6279,33.4665 19.0009,33.4665 C12.3739,33.4665 7.0009,28.0935 7.0009,21.4665 C7.0009,14.8395 12.3739,9.4665 19.0009,9.4665" id="Fill-37" fill="#F6F6F6"></path>
                        <path d="M19.0009,9.4665 C20.0059,9.4665 20.9759,9.6035 21.9079,9.8365 L24.3669,0.0005 C28.2999,3.9415 31.0009,12.0705 31.0009,21.4665 C31.0009,28.0935 25.6279,33.4665 19.0009,33.4665 C12.3739,33.4665 7.0009,28.0935 7.0009,21.4665 C7.0009,14.8395 12.3739,9.4665 19.0009,9.4665 L19.0009,9.4665 Z" id="Stroke-39" stroke="#545E65" stroke-width="2"></path>
                        <path d="M19.0009,24.4668 C17.3469,24.4668 16.0009,23.1208 16.0009,21.4668 C16.0009,19.8128 17.3469,18.4668 19.0009,18.4668 C20.6549,18.4668 22.0009,19.8128 22.0009,21.4668 C22.0009,23.1208 20.6549,24.4668 19.0009,24.4668" id="Fill-41" fill="#545E65"></path>
                        <path d="M36.2401,87.3194 C37.4081,81.9684 38.0011,76.2984 38.0011,70.4654 C38.0011,58.3314 35.3411,46.6774 30.7021,38.4934 C29.6141,36.5724 27.1731,35.8944 25.2501,36.9864 C23.3281,38.0754 22.6531,40.5164 23.7431,42.4384 C27.7191,49.4564 30.0011,59.6724 30.0011,70.4654 C30.0011,75.7254 29.4701,80.8224 28.4241,85.6124 C27.9531,87.7704 29.3201,89.9024 31.4781,90.3744 C31.7651,90.4364 32.0531,90.4664 32.3361,90.4664 C34.1761,90.4664 35.8311,89.1904 36.2401,87.3194 M5.6661,90.4664 C3.8261,90.4664 2.1711,89.1904 1.7621,87.3194 C0.5941,81.9684 0.0011,76.2984 0.0011,70.4654 C0.0011,58.3314 2.6611,46.6774 7.3001,38.4934 C8.3871,36.5714 10.8281,35.8944 12.7521,36.9864 C14.6741,38.0754 15.3491,40.5164 14.2591,42.4384 C10.2821,49.4564 8.0011,59.6724 8.0011,70.4654 C8.0011,75.7254 8.5311,80.8224 9.5781,85.6124 C10.0491,87.7704 8.6821,89.9024 6.5231,90.3744 C6.2361,90.4364 5.9481,90.4664 5.6661,90.4664" id="Fill-43" fill="#F6F6F6"></path>
                        <path d="M33.0469,43.3256 C32.6569,42.5206 32.2559,41.7336 31.8319,40.9856 C31.2999,40.0476 30.2989,39.4646 29.2199,39.4646 C28.6979,39.4646 28.2019,39.5966 27.7439,39.8566 C27.0469,40.2496 26.5449,40.8926 26.3309,41.6656 C26.1169,42.4376 26.2179,43.2466 26.6129,43.9456 C30.6729,51.1106 33.0009,61.5056 33.0009,72.4656 C33.0009,77.8006 32.4629,82.9686 31.4009,87.8256 C31.1899,88.7916 31.4799,89.7476 32.0869,90.4396 C32.1699,90.4446 32.2539,90.4666 32.3359,90.4666 C34.1759,90.4666 35.8309,89.1906 36.2399,87.3196 C37.4079,81.9686 38.0009,76.2986 38.0009,70.4656 C38.0009,60.5546 36.2249,50.9666 33.0469,43.3256" id="Fill-45" fill="#FF5C47"></path>
                        <path d="M14.2588,39.8564 C13.8008,39.5954 13.3038,39.4634 12.7808,39.4634 C11.7008,39.4634 10.7008,40.0474 10.1698,40.9864 C5.6138,49.0244 3.0008,60.4984 3.0008,72.4654 C3.0008,78.2244 3.5858,83.8234 4.7388,89.1044 C4.8498,89.6144 5.0918,90.0724 5.4218,90.4454 C5.5038,90.4504 5.5838,90.4664 5.6658,90.4664 C5.9478,90.4664 6.2368,90.4364 6.5238,90.3744 C8.6818,89.9024 10.0488,87.7704 9.5778,85.6124 C8.5308,80.8224 8.0008,75.7254 8.0008,70.4654 C8.0008,59.6714 10.2818,49.4564 14.2588,42.4384 C14.6558,41.7384 14.8128,40.9684 14.7668,40.2214 C14.6118,40.0844 14.4428,39.9604 14.2588,39.8564" id="Fill-47" fill="#FF5C47"></path>
                        <path d="M36.2401,87.3194 C37.4081,81.9684 38.0011,76.2984 38.0011,70.4654 C38.0011,58.3314 35.3411,46.6774 30.7021,38.4934 C29.6141,36.5724 27.1731,35.8944 25.2501,36.9864 C23.3281,38.0754 22.6531,40.5164 23.7431,42.4384 C27.7191,49.4564 30.0011,59.6724 30.0011,70.4654 C30.0011,75.7254 29.4701,80.8224 28.4241,85.6124 C27.9531,87.7704 29.3201,89.9024 31.4781,90.3744 C31.7651,90.4364 32.0531,90.4664 32.3361,90.4664 C34.1761,90.4664 35.8311,89.1904 36.2401,87.3194 L36.2401,87.3194 Z M5.6661,90.4664 C3.8261,90.4664 2.1711,89.1904 1.7621,87.3194 C0.5941,81.9684 0.0011,76.2984 0.0011,70.4654 C0.0011,58.3314 2.6611,46.6774 7.3001,38.4934 C8.3871,36.5714 10.8281,35.8944 12.7521,36.9864 C14.6741,38.0754 15.3491,40.5164 14.2591,42.4384 C10.2821,49.4564 8.0011,59.6724 8.0011,70.4654 C8.0011,75.7254 8.5311,80.8224 9.5781,85.6124 C10.0491,87.7704 8.6821,89.9024 6.5231,90.3744 C6.2361,90.4364 5.9481,90.4664 5.6661,90.4664 L5.6661,90.4664 Z" id="Stroke-49" stroke="#545E65" stroke-width="2"></path>
                    </g>
                    <g id="tool" transform="translate(116.000000, 33.000000)">
                        <polygon id="Fill-21" fill="#F6F6F6" points="12.0012 76.0041 10.0012 76.0041 8.0012 70.0031 8.0012 41.0031 14.0012 41.0031 14.0012 70.0031"></polygon>
                        <polygon id="Stroke-23" stroke="#545E65" stroke-width="2" points="12.0012 76.0041 10.0012 76.0041 8.0012 70.0031 8.0012 41.0031 14.0012 41.0031 14.0012 70.0031"></polygon>
                        <path d="M22.0012,28.0022 L18.0012,41.0032 L4.0022,41.0032 L0.0012,28.0022 L0.0012,6.0052 L0.0012,6.0052 C0.0012,2.6912 4.9262,0.0052 11.0012,0.0052 C17.0762,0.0052 22.0012,2.6912 22.0012,6.0052 L22.0012,28.0022 Z" id="Fill-51" fill="#F6F6F6"></path>
                        <path d="M13.0012,4.0051 C10.4302,4.0051 7.9432,4.5571 6.1812,5.5191 C4.8162,6.2631 4.0022,7.1921 4.0022,8.0051 L4.0022,29.7011 L7.4792,41.0031 L18.0012,41.0031 L22.0012,28.0021 L22.0012,18.0331 L22.0012,8.0051 C22.0012,6.3741 18.4952,4.0051 13.0012,4.0051" id="Fill-53" fill="#FF5C47"></path>
                        <path d="M7.0023,28.0022 L7.0023,6.0052" id="Fill-55" fill="#F6F6F6"></path>
                        <path d="M7.0023,28.0022 L7.0023,6.0052" id="Stroke-57" stroke="#545E65" stroke-width="2"></path>
                        <path d="M15.0031,28.0022 L15.0031,6.0052" id="Fill-59" fill="#F6F6F6"></path>
                        <path d="M15.0031,28.0022 L15.0031,6.0052" id="Stroke-61" stroke="#545E65" stroke-width="2"></path>
                        <path d="M22.0012,28.0022 L18.0012,41.0032 L4.0022,41.0032 L0.0012,28.0022 L0.0012,6.0052 L0.0012,6.0052 C0.0012,2.6912 4.9262,0.0052 11.0012,0.0052 C17.0762,0.0052 22.0012,2.6912 22.0012,6.0052 L22.0012,28.0022 L22.0012,28.0022 Z" id="Stroke-63" stroke="#545E65" stroke-width="2"></path>
                    </g>
                    <g id="tool" transform="translate(75.000000, 33.000000)">
                        <polygon id="Fill-65" fill="#F6F6F6" points="14.997 12 8.997 12 8.997 34.999 14.997 34.999"></polygon>
                        <polygon id="Stroke-67" stroke="#545E65" stroke-width="2" points="14.997 12 8.997 12 8.997 34.999 14.997 34.999"></polygon>
                        <polygon id="Fill-68" fill="#F6F6F6" points="14.9974 0.005 8.9974 0.005 6.9974 6.003 8.9974 12 14.9974 12 16.9974 6.003"></polygon>
                        <polygon id="Stroke-69" stroke="#545E65" stroke-width="2" points="14.9974 0.005 8.9974 0.005 6.9974 6.003 8.9974 12 14.9974 12 16.9974 6.003"></polygon>
                        <path d="M22.9972,48.0009 L18.9972,34.9999 L4.9982,34.9999 L0.9972,48.0009 L0.9972,69.9979 L0.9972,69.9979 C0.9972,73.3119 5.9222,75.9979 11.9972,75.9979 C18.0722,75.9979 22.9972,73.3119 22.9972,69.9979 L22.9972,48.0009 Z" id="Fill-70" fill="#F6F6F6"></path>
                        <path d="M22.9973,70 L22.9973,65.757 L22.9973,58.999 L22.9973,50.302 L19.5193,39 L8.4763,39 L4.9983,50.302 L4.9973,71.998 C4.9973,73.527 8.0763,75.703 12.9853,75.971 C18.5953,75.698 22.9953,73.131 22.9973,70" id="Fill-71" fill="#FF5C47"></path>
                        <path d="M7.9983,48.0009 L7.9983,69.9979" id="Fill-72" fill="#F6F6F6"></path>
                        <path d="M7.9983,48.0009 L7.9983,69.9979" id="Stroke-73" stroke="#545E65" stroke-width="2"></path>
                        <path d="M15.9991,48.0009 L15.9991,69.9979" id="Fill-75" fill="#F6F6F6"></path>
                        <path d="M15.9991,48.0009 L15.9991,69.9979" id="Stroke-76" stroke="#545E65" stroke-width="2"></path>
                        <path d="M22.9972,48.0009 L18.9972,34.9999 L4.9982,34.9999 L0.9972,48.0009 L0.9972,69.9979 L0.9972,69.9979 C0.9972,73.3119 5.9222,75.9979 11.9972,75.9979 C18.0722,75.9979 22.9972,73.3119 22.9972,69.9979 L22.9972,48.0009 L22.9972,48.0009 Z" id="Stroke-78" stroke="#545E65" stroke-width="2"></path>
                    </g>
                    <g id="tools" transform="translate(37.000000, 121.000000)">
                        <path d="M95.002,5.001 C95.002,2.24 92.763,0.001 90.002,0.001 C87.241,0.001 85.002,2.24 85.002,5.001 C85.002,7.762 87.241,10.001 90.002,10.001 C92.763,10.001 95.002,7.762 95.002,5.001" id="Fill-79" fill="#DDE0E2"></path>
                        <path d="M93.002,5.001 C93.002,3.344 91.659,2.001 90.002,2.001 C88.345,2.001 87.002,3.344 87.002,5.001 C87.002,6.658 88.345,8.001 90.002,8.001 C91.659,8.001 93.002,6.658 93.002,5.001" id="Fill-80" fill="#545E65"></path>
                        <path d="M73.9999,5.001 C73.9999,2.24 71.7609,0.001 68.9999,0.001 C66.2389,0.001 63.9999,2.24 63.9999,5.001 C63.9999,7.762 66.2389,10.001 68.9999,10.001 C71.7609,10.001 73.9999,7.762 73.9999,5.001" id="Fill-81" fill="#DDE0E2"></path>
                        <path d="M52.9978,5.001 C52.9978,2.24 50.7588,0.001 47.9978,0.001 C45.2368,0.001 42.9978,2.24 42.9978,5.001 C42.9978,7.762 45.2368,10.001 47.9978,10.001 C50.7588,10.001 52.9978,7.762 52.9978,5.001" id="Fill-82" fill="#DDE0E2"></path>
                        <path d="M31.9957,5.001 C31.9957,2.24 29.7567,0.001 26.9957,0.001 C24.2347,0.001 21.9957,2.24 21.9957,5.001 C21.9957,7.762 24.2347,10.001 26.9957,10.001 C29.7567,10.001 31.9957,7.762 31.9957,5.001" id="Fill-83" fill="#DDE0E2"></path>
                        <path d="M10.9936,5.001 C10.9936,2.24 8.7546,0.001 5.9936,0.001 C3.2326,0.001 0.9936,2.24 0.9936,5.001 C0.9936,7.762 3.2326,10.001 5.9936,10.001 C8.7546,10.001 10.9936,7.762 10.9936,5.001" id="Fill-84" fill="#DDE0E2"></path>
                        <polygon id="Fill-85" fill="#545E65" points="67.8452 7.001 66.6902 5.001 67.8452 3.001 70.1542 3.001 71.3092 5.001 70.1542 7.001"></polygon>
                        <polygon id="Fill-86" fill="#545E65" points="46.5544 7.501 45.1114 5.001 46.5544 2.501 49.4414 2.501 50.8844 5.001 49.4414 7.501"></polygon>
                        <polygon id="Fill-87" fill="#545E65" points="28.996 7.001 24.996 7.001 24.996 3.001 28.996 3.001"></polygon>
                        <path d="M6.9936,7.001 L4.9936,7.001 C4.4416,7.001 3.9936,6.553 3.9936,6.001 L3.9936,4.001 C3.9936,3.449 4.4416,3.001 4.9936,3.001 L6.9936,3.001 C7.5456,3.001 7.9936,3.449 7.9936,4.001 L7.9936,6.001 C7.9936,6.553 7.5456,7.001 6.9936,7.001" id="Fill-88" fill="#545E65"></path>
                    </g>
                    <path d="M51,6.001 L31.003,6.001 L31.003,2.001 C31.003,0.896 31.898,0.001 33.003,0.001 L49,0.001 C50.105,0.001 51,0.896 51,2.001 L51,6.001 Z" id="Fill-89" fill="#545E65"></path>
                    <path d="M184.997,6.001 L165,6.001 L165,2.001 C165,0.896 165.895,0.001 167,0.001 L182.997,0.001 C184.102,0.001 184.997,0.896 184.997,2.001 L184.997,6.001 Z" id="Fill-90" fill="#545E65"></path>
                </g>
            </g>
        </g>
    </g>
</svg>